<svg xmlns="http://www.w3.org/2000/svg" width="520" height="600">
    
    <!-- Couleurs
        rouge : #E00000
        bleue : #0000F7
        orange : #FD8000
        vert : #00E600
        jaune : #F3F300
        noir : #000000
    -->

    <!-- Face du haut -->
    <polygon points="0 150, 260 300, 520 150, 260 0" fill="#F3F300" />
    
    <!-- </> -->
    <polygon points="260 0, 312 30, 260 300, 208 270" fill="#000000" />
    <polygon points=" 60 150, 221 45, 212  90, 127 145, 195 180, 186 225" fill="#000000" />
    <polygon points="460 150, 334 75, 325 120, 393 155, 308 210, 299 255" fill="#000000" />
    
    <!-- Face de gauche -->
    <polygon points="0 150, 0 450, 260 600, 260 300" fill="#00E600" />
    
    <!-- J -->
    <polygon points="208 270, 260 300, 260 600, 104 510, 104 405, 156 435, 156 480, 208 510" fill="#E00000" />
    
    <!-- Face de droite -->
    <polygon points="260 600, 260 300, 520 150, 520 450" fill="#FD8000" />
    
    <!-- G -->
    <polygon points="260 300, 416 210, 416 270, 312 330, 312 510, 416 450, 416 390, 364 420, 364 360, 416 330, 468 360, 468 480, 260 600" fill="#0000F7" />
</svg>
